#!OML:ASF X:\für Bonn\!DataBase\2005_08_12_Daniel\c3d\Daniel.ASF
:FULLY-SPECIFIED
:DEGREES
116
root 0.8653 11.1849 -0.874806 73.777 -87.97 -93.7668
lowerback 49.9761 -3.77643 6.07644
upperback 2.53065 -2.83181 -2.67842
thorax -18.4188 -1.99302 -4.34951
lowerneck 6.3471 1.69326 -3.21291
upperneck -3.12955 2.00256 0.384703
head -2.11365 1.02664 0.597225
rclavicle 5.26779e-015 -4.37326e-015
rhumerus 67.7891 3.87903 -93.5668
rradius 8.00677
rwrist 55.8016
rhand -18.3317 8.10652
rfingers 7.12502
rthumb 7.95023 -21.724
lclavicle 5.26779e-015 -4.37326e-015
lhumerus 67.1851 0.624962 92.3668
lradius 11.438
lwrist -68.0271
lhand -17.938 -1.25504
lfingers 7.12502
lthumb 8.33017 28.5607
rfemur -43.9522 -36.7492 -4.09196
rtibia 117.802
rfoot -7.52663 35.1347
rtoes -4.18864
lfemur -47.2036 34.9989 5.90791
ltibia 116.407
lfoot -20.19 -37.166
ltoes 6.07236
117
root 0.854926 11.3789 -0.877205 72.4339 -87.9705 -92.2453
lowerback 49.529 -3.7673 6.06259
upperback 2.56302 -2.84435 -2.67942
thorax -18.3049 -1.99188 -4.34924
lowerneck 6.2459 1.68983 -3.20366
upperneck -3.03345 2.00381 0.403784
head -2.06371 1.02576 0.602335
rclavicle 1.45113e-014 -1.59028e-015
rhumerus 67.6264 3.90922 -93.7103
rradius 8.01554
rwrist 56.0206
rhand -18.3434 8.03462
rfingers 7.12502
rthumb 7.93894 -21.7963
lclavicle 1.45113e-014 -1.59028e-015
lhumerus 67.1647 0.733377 92.8085
lradius 11.3773
lwrist -68.3555
lhand -17.6565 -1.10758
lfingers 7.12502
lthumb 8.60183 28.6972
rfemur -43.162 -35.1867 -3.00474
rtibia 115.95
rfoot -7.7798 34.0333
rtoes -4.30328
lfemur -46.1647 33.5948 5.14708
ltibia 114.539
lfoot -20.3502 -36.3866
ltoes 6.2168
118
root 0.844348 11.5727 -0.880355 70.8495 -87.9661 -90.507
lowerback 49.0975 -3.75827 6.04124
upperback 2.59091 -2.85877 -2.67396
thorax -18.1968 -1.99111 -4.33673
lowerneck 6.16549 1.67801 -3.1391
upperneck -2.93233 1.99464 0.3621
head -2.01404 1.02053 0.578921
rclavicle -1.2424e-014 -7.15625e-015
rhumerus 67.4488 3.91155 -93.8385
rradius 8.02178
rwrist 56.1744
rhand -18.3613 7.98796
rfingers 7.12502
rthumb 7.92168 -21.8436
lclavicle -1.2424e-014 -7.15625e-015
lhumerus 67.128 0.882228 93.3619
lradius 11.2915
lwrist -68.7986
lhand -17.3745 -0.986286
lfingers 7.12502
lthumb 8.87398 28.8071
rfemur -42.2438 -33.6993 -2.01853
rtibia 114.053
rfoot -8.03523 32.9912
rtoes -4.39355
lfemur -45.0724 32.2408 4.44281
ltibia 112.633
lfoot -20.5433 -35.6087
ltoes 6.28348
119
root 0.832829 11.7675 -0.882734 69.8988 -87.9318 -89.4013
lowerback 48.6699 -3.74715 6.04578
upperback 2.60485 -2.85059 -2.64852
thorax -18.1005 -1.98264 -4.32535
lowerneck 6.1068 1.66691 -3.10218
upperneck -2.831 1.98323 0.320386
head -1.96874 1.01443 0.560252
rclavicle -6.4605e-015 3.97569e-015
rhumerus 67.2402 3.92494 -93.9453
rradius 8.04569
rwrist 56.2994
rhand -18.3252 7.9648
rfingers 7.12502
rthumb 7.95647 -21.8655
lclavicle -6.4605e-015 3.97569e-015
lhumerus 67.031 0.987075 93.7613
lradius 11.2743
lwrist -69.0844
lhand -17.0466 -0.889575
lfingers 7.12502
lthumb 9.19042 28.8902
rfemur -41.2867 -32.2449 -1.03867
rtibia 112.116
rfoot -8.42012 31.9685
rtoes -4.50927
lfemur -43.9356 30.9767 3.83135
ltibia 110.702
lfoot -20.705 -34.8986
ltoes 6.40598
120
root 0.820596 11.9652 -0.886091 68.6933 -87.9153 -87.975
lowerback 48.1592 -3.73665 6.0434
upperback 2.62332 -2.85529 -2.64819
thorax -17.9847 -1.97855 -4.33532
lowerneck 6.02349 1.64196 -2.99835
upperneck -2.72747 1.95794 0.239759
head -1.91659 1.00165 0.518493
rclavicle -6.4605e-015 1.82882e-014
rhumerus 67.003 3.94038 -94.0945
rradius 8.11707
rwrist 56.4287
rhand -18.2575 7.85605
rfingers 7.12502
rthumb 8.02183 -21.9717
lclavicle -6.4605e-015 1.82882e-014
lhumerus 66.9323 1.03906 93.9888
lradius 11.2624
lwrist -69.2308
lhand -16.6116 -0.692424
lfingers 7.12502
lthumb 9.61006 29.0684
rfemur -40.3486 -30.921 -0.107192
rtibia 110.136
rfoot -8.77458 30.9583
rtoes -4.56306
lfemur -42.8821 29.7623 3.15219
ltibia 108.728
lfoot -20.8733 -34.1358
ltoes 6.55244
